<svg width="19" height="18" viewBox="0 0 19 18" fill="none" xmlns="http://www.w3.org/2000/svg">
<g id="ant-design:linkedin-outlined">
<path id="Vector" d="M15.651 1.96875H3.84902C3.225 1.96875 2.71875 2.475 2.71875 3.09902V14.901C2.71875 15.525 3.225 16.0312 3.84902 16.0312H15.651C16.275 16.0312 16.7812 15.525 16.7812 14.901V3.09902C16.7812 2.475 16.275 1.96875 15.651 1.96875ZM15.651 14.9062C7.77949 14.9045 3.84375 14.9027 3.84375 14.901C3.84551 7.02949 3.84727 3.09375 3.84902 3.09375C11.7205 3.09551 15.6562 3.09727 15.6562 3.09902C15.6545 10.9705 15.6527 14.9062 15.651 14.9062ZM4.80352 7.24043H6.89004V13.9518H4.80352V7.24043ZM5.84766 6.32285C6.51387 6.32285 7.05703 5.78145 7.05703 5.11348C7.05703 4.95466 7.02575 4.7974 6.96497 4.65067C6.9042 4.50394 6.81511 4.37062 6.70281 4.25832C6.59051 4.14602 6.45719 4.05694 6.31046 3.99616C6.16374 3.93538 6.00647 3.9041 5.84766 3.9041C5.68884 3.9041 5.53158 3.93538 5.38485 3.99616C5.23812 4.05694 5.1048 4.14602 4.9925 4.25832C4.8802 4.37062 4.79112 4.50394 4.73034 4.65067C4.66956 4.7974 4.63828 4.95466 4.63828 5.11348C4.63652 5.78145 5.17793 6.32285 5.84766 6.32285ZM10.2826 10.6312C10.2826 9.75586 10.4496 8.90859 11.5342 8.90859C12.6029 8.90859 12.6188 9.90879 12.6188 10.6875V13.9518H14.7035V10.2709C14.7035 8.46387 14.3133 7.07344 12.2021 7.07344C11.1879 7.07344 10.5076 7.63066 10.2281 8.15801H10.2V7.24043H8.19785V13.9518H10.2826V10.6312Z" fill="#3D3B3B"/>
</g>
</svg>
