<svg width="27" height="15" viewBox="0 0 27 15" fill="none" xmlns="http://www.w3.org/2000/svg">
<g id="Battery">
<path id="Outline" fill-rule="evenodd" clip-rule="evenodd" d="M0.497559 4.766C0.497559 2.42544 2.39496 0.528046 4.73552 0.528046H19.5684C21.9089 0.528046 23.8063 2.42544 23.8063 4.766V10.0635C23.8063 12.404 21.9089 14.3014 19.5684 14.3014H4.73552C2.39496 14.3014 0.497559 12.404 0.497559 10.0635V4.766Z" fill="#B2B2B2"/>
<path id="Rectangle 1" d="M0.497559 4.766C0.497559 2.42544 2.39496 0.528046 4.73552 0.528046H17.4494V14.3014H4.73552C2.39496 14.3014 0.497559 12.404 0.497559 10.0635V4.766Z" fill="black"/>
<path id="Battery End" d="M24.8657 5.62172V9.92115C25.7307 9.55702 26.2932 8.70993 26.2932 7.77144C26.2932 6.83294 25.7307 5.98586 24.8657 5.62172Z" fill="#B2B2B2"/>
<g id="&#226;&#156;&#143;&#239;&#184;&#143; Percentage">
<path d="M5.91002 11.1229L9.09159 5.03398V4.94086H5.32544V3.65271H10.6643V4.95638L7.54478 11.1229H5.91002Z" fill="white"/>
<path d="M14.9027 11.3144C14.3612 11.3144 13.8784 11.1988 13.4542 10.9677C13.0334 10.7367 12.6954 10.4021 12.4402 9.96413C12.0229 9.32264 11.8142 8.48284 11.8142 7.44474C11.8142 6.2066 12.0901 5.23402 12.642 4.527C13.1938 3.81998 13.956 3.46648 14.9286 3.46648C15.639 3.46648 16.2443 3.65789 16.7444 4.04071C17.2479 4.42353 17.5531 4.92707 17.66 5.55131H16.1132C16.0408 5.30644 15.896 5.11158 15.6787 4.96673C15.4648 4.82188 15.2114 4.74945 14.9182 4.74945C14.4078 4.74945 14.006 4.9788 13.7128 5.4375C13.4231 5.89275 13.2869 6.50837 13.3041 7.28436H13.3973C13.5663 6.93258 13.8163 6.66184 14.1474 6.47216C14.4819 6.27902 14.8665 6.18245 15.301 6.18245C16.008 6.18245 16.5944 6.41698 17.0599 6.88602C17.5255 7.35507 17.7583 7.94654 17.7583 8.66046C17.7583 9.43645 17.4911 10.0728 16.9565 10.5694C16.4219 11.066 15.7373 11.3144 14.9027 11.3144ZM13.9249 9.64856C14.1836 9.90377 14.5043 10.0314 14.8872 10.0314C15.27 10.0314 15.5907 9.9055 15.8494 9.65373C16.1115 9.39851 16.2426 9.08294 16.2426 8.70702C16.2426 8.32764 16.115 8.0138 15.8597 7.76548C15.6045 7.51371 15.2821 7.38783 14.8923 7.38783C14.5026 7.38783 14.1784 7.51199 13.9198 7.76031C13.6645 8.00862 13.5369 8.31902 13.5369 8.6915C13.5369 9.07087 13.6663 9.38989 13.9249 9.64856Z" fill="white"/>
</g>
</g>
</svg>
