<svg width="19" height="18" viewBox="0 0 19 18" fill="none" xmlns="http://www.w3.org/2000/svg">
<g id="EnvelopeSimple">
<path id="Vector" d="M16 3.09375H2.5C2.27622 3.09375 2.06161 3.18264 1.90338 3.34088C1.74514 3.49911 1.65625 3.71372 1.65625 3.9375V13.5C1.65625 13.873 1.80441 14.2306 2.06813 14.4944C2.33185 14.7581 2.68954 14.9062 3.0625 14.9062H15.4375C15.8105 14.9062 16.1681 14.7581 16.4319 14.4944C16.6956 14.2306 16.8438 13.873 16.8438 13.5V3.9375C16.8438 3.71372 16.7549 3.49911 16.5966 3.34088C16.4384 3.18264 16.2238 3.09375 16 3.09375ZM13.8309 4.78125L9.25 8.98031L4.66914 4.78125H13.8309ZM3.34375 13.2188V5.85562L8.67977 10.7473C8.83539 10.89 9.03886 10.9691 9.25 10.9691C9.46114 10.9691 9.66461 10.89 9.82023 10.7473L15.1562 5.85562V13.2188H3.34375Z" fill="white"/>
</g>
</svg>
