<svg width="19" height="18" viewBox="0 0 19 18" fill="none" xmlns="http://www.w3.org/2000/svg">
<g id="iconoir:behance-tag">
<g id="Group">
<path id="Vector" d="M16.5 6V12C16.5 12.9946 16.1049 13.9484 15.4017 14.6517C14.6984 15.3549 13.7446 15.75 12.75 15.75H6.75C5.75544 15.75 4.80161 15.3549 4.09835 14.6517C3.39509 13.9484 3 12.9946 3 12V6C3 5.00544 3.39509 4.05161 4.09835 3.34835C4.80161 2.64509 5.75544 2.25 6.75 2.25H12.75C13.7446 2.25 14.6984 2.64509 15.4017 3.34835C16.1049 4.05161 16.5 5.00544 16.5 6Z" stroke="#3D3B3B" stroke-width="1.5" stroke-linecap="round" stroke-linejoin="round"/>
<path id="Vector_2" d="M7.57425 8.8695C9.4755 8.8695 9.4755 12 7.57425 12H5.25V8.8695M7.57425 8.8695H5.25M7.57425 8.8695C9.4755 8.8695 9.4755 6 7.57425 6H5.25V8.8695M10.5 10.125C10.5 9.62772 10.6975 9.15081 11.0492 8.79917C11.4008 8.44754 11.8777 8.25 12.375 8.25C12.8723 8.25 13.3492 8.44754 13.7008 8.79917C14.0525 9.15081 14.25 9.62772 14.25 10.125H10.5ZM10.5 10.125C10.5 10.6223 10.6975 11.0992 11.0492 11.4508C11.4008 11.8025 11.8777 12 12.375 12C13.071 12 13.4925 11.7585 13.7347 11.535M13.5 6.375H11.25" stroke="#3D3B3B" stroke-width="1.5" stroke-linecap="round" stroke-linejoin="round"/>
</g>
</g>
</svg>
