<svg width="19" height="18" viewBox="0 0 19 18" fill="none" xmlns="http://www.w3.org/2000/svg">
<g id="ion:logo-dribbble">
<path id="Vector" d="M9.75 1.125C5.40223 1.125 1.875 4.65223 1.875 9C1.875 13.3478 5.40223 16.875 9.75 16.875C14.0978 16.875 17.625 13.3516 17.625 9C17.625 4.64836 14.0978 1.125 9.75 1.125ZM14.7499 4.75488C15.6611 5.82603 16.2035 7.16194 16.2968 8.56512C14.8775 8.49129 13.1795 8.49129 11.8179 8.61855C11.6456 8.18367 11.4691 7.75723 11.2765 7.34695C12.8466 6.66633 14.0566 5.77195 14.7499 4.75488ZM9.75 2.43738C11.2796 2.43475 12.7617 2.969 13.9378 3.94699C13.2241 4.8491 12.1044 5.63449 10.7098 6.22723C9.94687 4.81641 9.06902 3.60246 8.13281 2.64656C8.66114 2.51018 9.20436 2.43991 9.75 2.43738ZM6.78035 3.15527C7.72781 4.09852 8.61797 5.2998 9.39738 6.70605C7.9166 7.15852 6.21855 7.41797 4.40625 7.41797C4.06172 7.41797 3.72563 7.40566 3.3934 7.38492C3.6245 6.47951 4.04617 5.63385 4.63025 4.90445C5.21433 4.17505 5.94736 3.57871 6.78035 3.15527ZM3.19969 8.68816C3.57305 8.70469 3.95027 8.71277 4.33172 8.70891C6.39891 8.6843 8.32266 8.36016 9.9757 7.83C10.1316 8.15414 10.2792 8.48637 10.4187 8.82668C10.2189 8.87041 10.0228 8.92917 9.83191 9.00246C7.57207 9.95168 5.79211 11.4813 4.82812 13.3313C3.7711 12.136 3.18755 10.5956 3.18738 9C3.18738 8.89453 3.1916 8.79082 3.19969 8.68816ZM9.75 15.5626C8.292 15.5644 6.87543 15.0777 5.72637 14.1803C6.6 12.4495 8.15848 11.0162 10.1234 10.1278C10.3079 10.0417 10.554 9.97207 10.837 9.91055C11.0714 10.5584 11.2806 11.231 11.4646 11.9285C11.7394 12.9813 11.9417 14.0516 12.0703 15.132C11.3296 15.4158 10.5432 15.5617 9.75 15.5626ZM13.298 14.5167C13.1696 13.4251 12.9654 12.3438 12.6866 11.2806C12.546 10.7473 12.3874 10.2305 12.2152 9.72598C13.5029 9.62051 15.0452 9.63562 16.2715 9.72598C16.1634 10.6954 15.8404 11.6285 15.326 12.4573C14.8116 13.2861 14.1188 13.9897 13.298 14.5167Z" fill="#3D3B3B"/>
</g>
</svg>
