<svg width="17" height="16" viewBox="0 0 17 16" fill="none" xmlns="http://www.w3.org/2000/svg">
<g id="List">
<path id="Vector" d="M14.75 8C14.75 8.19891 14.671 8.38968 14.5303 8.53033C14.3897 8.67098 14.1989 8.75 14 8.75H3C2.80109 8.75 2.61032 8.67098 2.46967 8.53033C2.32902 8.38968 2.25 8.19891 2.25 8C2.25 7.80109 2.32902 7.61032 2.46967 7.46967C2.61032 7.32902 2.80109 7.25 3 7.25H14C14.1989 7.25 14.3897 7.32902 14.5303 7.46967C14.671 7.61032 14.75 7.80109 14.75 8ZM3 4.75H14C14.1989 4.75 14.3897 4.67098 14.5303 4.53033C14.671 4.38968 14.75 4.19891 14.75 4C14.75 3.80109 14.671 3.61032 14.5303 3.46967C14.3897 3.32902 14.1989 3.25 14 3.25H3C2.80109 3.25 2.61032 3.32902 2.46967 3.46967C2.32902 3.61032 2.25 3.80109 2.25 4C2.25 4.19891 2.32902 4.38968 2.46967 4.53033C2.61032 4.67098 2.80109 4.75 3 4.75ZM14 11.25H3C2.80109 11.25 2.61032 11.329 2.46967 11.4697C2.32902 11.6103 2.25 11.8011 2.25 12C2.25 12.1989 2.32902 12.3897 2.46967 12.5303C2.61032 12.671 2.80109 12.75 3 12.75H14C14.1989 12.75 14.3897 12.671 14.5303 12.5303C14.671 12.3897 14.75 12.1989 14.75 12C14.75 11.8011 14.671 11.6103 14.5303 11.4697C14.3897 11.329 14.1989 11.25 14 11.25Z" fill="white"/>
</g>
</svg>
