<svg width="19" height="13" viewBox="0 0 19 13" fill="none" xmlns="http://www.w3.org/2000/svg">
<g id="Mobile Signal">
<path d="M10.709 3.66131C10.709 3.10477 11.1602 2.65361 11.7167 2.65361H12.7244C13.2809 2.65361 13.7321 3.10477 13.7321 3.66131V11.7228C13.7321 12.2794 13.2809 12.7305 12.7244 12.7305H11.7167C11.1602 12.7305 10.709 12.2794 10.709 11.7228V3.66131Z" fill="black"/>
<path d="M15.7475 1.64592C15.7475 1.08939 16.1986 0.638229 16.7552 0.638229H17.7628C18.3194 0.638229 18.7705 1.08939 18.7705 1.64592V11.7228C18.7705 12.2794 18.3194 12.7305 17.7628 12.7305H16.7552C16.1986 12.7305 15.7475 12.2794 15.7475 11.7228V1.64592Z" fill="black"/>
<path d="M5.67054 7.18823C5.67054 6.6317 6.1217 6.18054 6.67823 6.18054H7.68593C8.24246 6.18054 8.69362 6.6317 8.69362 7.18823V11.7228C8.69362 12.2794 8.24246 12.7305 7.68593 12.7305H6.67823C6.1217 12.7305 5.67054 12.2794 5.67054 11.7228V7.18823Z" fill="black"/>
<path d="M0.63208 9.70746C0.63208 9.15093 1.08324 8.69977 1.63977 8.69977H2.64746C3.204 8.69977 3.65516 9.15093 3.65516 9.70746V11.7228C3.65516 12.2794 3.204 12.7305 2.64746 12.7305H1.63977C1.08324 12.7305 0.63208 12.2794 0.63208 11.7228V9.70746Z" fill="black"/>
</g>
</svg>
