<svg width="16" height="16" viewBox="0 0 16 16" fill="none" xmlns="http://www.w3.org/2000/svg">
<g id="ReadCvLogo">
<path id="Vector" d="M13.2174 2.20753L5.07679 0.770028C4.91509 0.741423 4.74935 0.744957 4.58902 0.780427C4.42869 0.815897 4.27692 0.882609 4.14238 0.976751C4.00784 1.07089 3.89317 1.19062 3.80492 1.32909C3.71667 1.46757 3.65656 1.62207 3.62804 1.78378L1.76866 12.3463C1.71125 12.6726 1.78579 13.0085 1.97589 13.2799C2.16598 13.5513 2.45608 13.7362 2.78241 13.7938L10.923 15.2313C10.9957 15.2442 11.0693 15.2507 11.143 15.2507C11.4373 15.2508 11.7221 15.1471 11.9475 14.9579C12.1728 14.7687 12.3242 14.5061 12.3749 14.2163L14.2343 3.65378C14.2625 3.49205 14.2586 3.32634 14.2227 3.16612C14.1869 3.00591 14.1199 2.85432 14.0254 2.72002C13.931 2.58572 13.811 2.47134 13.6724 2.3834C13.5338 2.29547 13.3792 2.2357 13.2174 2.20753ZM10.9374 13.71L3.28929 12.3594L5.06241 2.29003L12.7105 3.64065L10.9374 13.71ZM5.74366 4.18753C5.77826 3.9917 5.88921 3.81763 6.05213 3.70359C6.21504 3.58956 6.41657 3.54488 6.61241 3.5794L10.8124 4.32128C11.0002 4.35008 11.1701 4.4491 11.2878 4.59834C11.4054 4.74758 11.462 4.9359 11.4461 5.12526C11.4302 5.31462 11.3431 5.49089 11.2023 5.61847C11.0614 5.74604 10.8774 5.8154 10.6874 5.81253C10.6434 5.81245 10.5995 5.80869 10.5562 5.80128L6.35179 5.05628C6.15596 5.02168 5.98189 4.91073 5.86785 4.74781C5.75381 4.5849 5.70914 4.38337 5.74366 4.18753ZM5.31241 6.6494C5.32954 6.55238 5.36562 6.45968 5.41858 6.3766C5.47155 6.29352 5.54037 6.22169 5.6211 6.16522C5.70184 6.10874 5.79291 6.06873 5.88911 6.04746C5.98532 6.0262 6.08477 6.0241 6.18179 6.04128L10.383 6.78378C10.5674 6.81699 10.7327 6.91803 10.8464 7.067C10.96 7.21598 11.0138 7.4021 10.9971 7.58873C10.9804 7.77536 10.8945 7.94898 10.7562 8.07542C10.6179 8.20186 10.4373 8.27195 10.2499 8.2719C10.2059 8.27186 10.162 8.26809 10.1187 8.26065L5.91804 7.51815C5.72267 7.48297 5.54922 7.37178 5.43569 7.20893C5.32217 7.04609 5.27784 6.84488 5.31241 6.6494ZM4.87491 9.11128C4.90951 8.91545 5.02046 8.74138 5.18338 8.62734C5.34629 8.51331 5.54782 8.46863 5.74366 8.50315L7.84616 8.87503C8.03101 8.90741 8.197 9.00792 8.31137 9.1567C8.42574 9.30549 8.48018 9.49175 8.46393 9.67871C8.44768 9.86567 8.36194 10.0397 8.22361 10.1666C8.08529 10.2934 7.90445 10.3638 7.71679 10.3638C7.67277 10.3638 7.62884 10.3598 7.58554 10.3519L5.48491 9.98128C5.38765 9.96437 5.29469 9.92843 5.21135 9.87552C5.12802 9.8226 5.05595 9.75376 4.99927 9.67293C4.9426 9.5921 4.90244 9.50088 4.8811 9.4045C4.85976 9.30812 4.85766 9.20848 4.87491 9.11128Z" fill="white"/>
</g>
</svg>
