<svg width="18" height="13" viewBox="0 0 18 13" fill="none" xmlns="http://www.w3.org/2000/svg">
<path id="Wifi" fill-rule="evenodd" clip-rule="evenodd" d="M9.25384 3.24566C11.7394 3.24577 14.1299 4.22063 15.9312 5.96874C16.0669 6.1037 16.2837 6.102 16.4173 5.96492L17.714 4.62914C17.7816 4.55962 17.8193 4.46545 17.8188 4.36746C17.8182 4.26948 17.7794 4.17576 17.711 4.10705C12.983 -0.518043 5.52398 -0.518043 0.795976 4.10705C0.727487 4.17571 0.688628 4.2694 0.687996 4.36738C0.687365 4.46537 0.725013 4.55957 0.79261 4.62914L2.08965 5.96492C2.22316 6.1022 2.44015 6.10391 2.57571 5.96874C4.37731 4.22051 6.76807 3.24565 9.25384 3.24566ZM9.28948 7.27828C10.6551 7.27819 11.972 7.79632 12.9843 8.73199C13.1212 8.86478 13.3369 8.8619 13.4704 8.7255L14.7655 7.38972C14.8337 7.31965 14.8716 7.2246 14.8706 7.12583C14.8696 7.02707 14.8299 6.93282 14.7603 6.86419C11.6777 3.93725 6.90389 3.93725 3.82128 6.86419C3.75165 6.93282 3.71192 7.02711 3.711 7.12591C3.71009 7.22471 3.74807 7.31975 3.81642 7.38972L5.11121 8.7255C5.24468 8.8619 5.46036 8.86478 5.59728 8.73199C6.60889 7.79694 7.92475 7.27885 9.28948 7.27828ZM11.9233 9.88555C11.9253 9.9846 11.8871 10.0801 11.8178 10.1495L9.57747 12.4573C9.51179 12.5251 9.42225 12.5633 9.32883 12.5633C9.2354 12.5633 9.14586 12.5251 9.08019 12.4573L6.83944 10.1495C6.77022 10.08 6.73214 9.98451 6.73419 9.88547C6.73624 9.78642 6.77825 9.69263 6.85028 9.62623C8.28107 8.39096 10.3766 8.39096 11.8074 9.62623C11.8794 9.69268 11.9213 9.7865 11.9233 9.88555Z" fill="black"/>
</svg>
